# xmcd
#
# Track frame offsets:
# 150
# 10928
# 20549
# 33925
# 43807
# 55286
# 65804
# 76182
# 88357
# 97806
# 110250
# 121253
# 131321
# 143190
# 156608
# 167920
# 181438
# 194182
# 206973
# 220735
#
# Disc length: 3111 seconds
#
#
# Revision: 0
# Processed by: cddbd v1.5.1PL2 Copyright (c) Steve Scherf et al.
# Submitted via: FreeRIP 2.945 
#
DISCID=280c2514
DTITLE=Hank Locklin - Famous Country Music Maker
DYEAR=2000
DGENRE=Country
TTITLE0=Please Help Me I'm Falling
TTITLE1=Geisha Girl
TTITLE2=Happy Birthday To Me
TTITLE3=Happy Journey
TTITLE4=Send Me The Pillow That You Dream On
TTITLE5=These Arms You Push Away
TTITLE6=Let Me Be The One
TTITLE7=It's A Little More Like Heaven
TTITLE8=Flying South
TTITLE9=From Here To There To You
TTITLE10=I was Coming Home To You
TTITLE11=We're Gonna Go Fishing
TTITLE12=Paper Face
TTITLE13=Come Share The Sunshine With Me
TTITLE14=To Whom It May Concern
TTITLE15=Tell Me You Love Me
TTITLE16=Song Of The Whispering Leaves
TTITLE17=Could You
TTITLE18=I Could Call You Darling
TTITLE19=No One Sweeter Than You
EXTD=Castle Music
EXTT0=
EXTT1=
EXTT2=
EXTT3=
EXTT4=
EXTT5=
EXTT6=
EXTT7=
EXTT8=
EXTT9=
EXTT10=
EXTT11=
EXTT12=
EXTT13=
EXTT14=
EXTT15=
EXTT16=
EXTT17=
EXTT18=
EXTT19=
PLAYORDER=
